<?xml version="1.0" encoding="utf-8"?>
<svg version="1.1" xmlns:xlink="http://www.w3.org/1999/xlink" width="5px" height="5px" xmlns="http://www.w3.org/2000/svg">
  <defs>
    <mask fill="white" id="clip17">
      <path d="M 0 2.5  C 0 1.11928808689117  1.11928808689117 0  2.5 0  C 3.88071203231811 0  5 1.11928808689117  5 2.5  C 5 3.88071203231811  3.88071203231811 5  2.5 5  C 1.11928808689117 5  0 3.88071203231811  0 2.5  Z " fill-rule="evenodd" />
    </mask>
  </defs>
  <g transform="matrix(1 0 0 1 -42 -285 )">
    <path d="M 0 2.5  C 0 1.11928808689117  1.11928808689117 0  2.5 0  C 3.88071203231811 0  5 1.11928808689117  5 2.5  C 5 3.88071203231811  3.88071203231811 5  2.5 5  C 1.11928808689117 5  0 3.88071203231811  0 2.5  Z " fill-rule="nonzero" fill="#000000" stroke="none" transform="matrix(1 0 0 1 42 285 )" />
    <path d="M 0 2.5  C 0 1.11928808689117  1.11928808689117 0  2.5 0  C 3.88071203231811 0  5 1.11928808689117  5 2.5  C 5 3.88071203231811  3.88071203231811 5  2.5 5  C 1.11928808689117 5  0 3.88071203231811  0 2.5  Z " stroke-width="2" stroke="#707070" fill="none" transform="matrix(1 0 0 1 42 285 )" mask="url(#clip17)" />
  </g>
</svg>