<?xml version="1.0" encoding="utf-8"?>
<svg version="1.1" xmlns:xlink="http://www.w3.org/1999/xlink" width="21px" height="21px" xmlns="http://www.w3.org/2000/svg">
  <defs>
    <mask fill="white" id="clip18">
      <path d="M 0 10.5  C 0 4.70101022720337  4.70101022720337 0  10.5 0  C 16.2989902496338 0  21 4.70101022720337  21 10.5  C 21 16.2989902496338  16.2989902496338 21  10.5 21  C 4.70101022720337 21  0 16.2989902496338  0 10.5  Z " fill-rule="evenodd" />
    </mask>
  </defs>
  <g transform="matrix(1 0 0 1 -34 -277 )">
    <path d="M 0 10.5  C 0 4.70101022720337  4.70101022720337 0  10.5 0  C 16.2989902496338 0  21 4.70101022720337  21 10.5  C 21 16.2989902496338  16.2989902496338 21  10.5 21  C 4.70101022720337 21  0 16.2989902496338  0 10.5  Z " fill-rule="nonzero" fill="#ffffff" stroke="none" fill-opacity="0" transform="matrix(1 0 0 1 34 277 )" />
    <path d="M 0 10.5  C 0 4.70101022720337  4.70101022720337 0  10.5 0  C 16.2989902496338 0  21 4.70101022720337  21 10.5  C 21 16.2989902496338  16.2989902496338 21  10.5 21  C 4.70101022720337 21  0 16.2989902496338  0 10.5  Z " stroke-width="2" stroke="#000000" fill="none" transform="matrix(1 0 0 1 34 277 )" mask="url(#clip18)" />
  </g>
</svg>