<?xml version="1.0" encoding="utf-8"?>
<svg version="1.1" xmlns:xlink="http://www.w3.org/1999/xlink" width="18px" height="18px" xmlns="http://www.w3.org/2000/svg">
  <g transform="matrix(1 0 0 1 -1173 -45 )">
    <path d="M 17.8901573281776 17.8901361760193  C 18.0366205536537 17.743641055371  18.0366205536537 17.5063344170389  17.8901250466421 17.3598734767499  C 17.8901250466421 17.3598734767499  12.4132767625797 11.8829883666427  12.4132767625797 11.8829883666427  C 13.5508609833652 10.6199300979918  14.2500116308473 8.95461362584375  14.2500116308473 7.1249769757215  C 14.2499783998549 3.1963012051232  11.053714259672 0  7.1250067648806 0  C 3.19629903272493 0  0 3.1963012051232  0 7.12501210553513  C 0 11.0537234806743  3.19629832063224 14.250023815473  7.1250067648806 14.250023815473  C 8.95464254370904 14.250023815473  10.6199225812822 13.5508731130033  11.8830155131767 12.4132852462713  C 11.8830155131767 12.4132852462713  17.3598609488683 17.8901361760193  17.3598609488683 17.8901361760193  C 17.4330925616063 17.9633675956182  17.5290674655608 17.9999994461428  17.6250100879798 17.9999994461428  C 17.7209527103989 17.9999994461428  17.816893433904 17.9633675956182  17.8901573281776 17.8901361760193  Z M 13.4999900307023 7.12501210553513  C 13.4999900307023 10.6402854513534  10.6398906099026 13.4999984966884  7.1250067648806 13.4999984966884  C 3.61012268249432 13.4999984966884  0.750023380376814 10.6402503215398  0.750023380376814 7.12501210553513  C 0.750023380376814 3.60977388953045  3.61012244513009 0.74998827027307  7.1250067648806 0.74998827027307  C 10.6398906099026 0.74998827027307  13.4999900307023 3.60973852235322  13.4999900307023 7.12501210553513  Z " fill-rule="nonzero" fill="#333333" stroke="none" transform="matrix(1 0 0 1 1173 45 )" />
  </g>
</svg>