<?xml version="1.0" encoding="utf-8"?>
<svg version="1.1" xmlns:xlink="http://www.w3.org/1999/xlink" width="19px" height="21px" xmlns="http://www.w3.org/2000/svg">
  <g transform="matrix(1 0 0 1 -1234 -44 )">
    <path d="M 18.8890508594196 20.8430893313756  C 18.9671830207533 20.7384822189594  19.0192698706283 20.607720486987  18.993228332212 20.476960649316  C 18.993228332212 20.476960649316  17.4305586942414 5.85803239273451  17.4305586942414 5.85803239273451  C 17.4045133827827 5.62266496907192  17.1961584371979 5.43960157519281  16.9617544071121 5.43960157519281  C 16.9617544071121 5.43960157519281  14.0708135016931 5.43960157519281  14.0708135016931 5.43960157519281  C 14.0708135016931 5.43960157519281  14.0708135016931 4.55043543675058  14.0708135016931 4.55043543675058  C 14.0708135016931 2.03985029471271  12.0393414631143 0  9.53906702392744 0  C 7.03879447126173 0  5.00732243268297 2.03985053150038  5.00732243268297 4.55043543675058  C 5.00732243268297 4.55043543675058  5.00732243268297 5.43960110161745  5.00732243268297 5.43960110161745  C 5.00732243268297 5.43960110161745  2.03824747940912 5.43960110161745  2.03824747940912 5.43960110161745  C 1.80384722236564 5.43960110161745  1.59549039025968 5.62266496907192  1.56944507880098 5.85803191915915  C 1.56944507880098 5.85803191915915  0.00677544083035703 20.476960649316  0.00677544083035703 20.476960649316  C -0.0192698706283347 20.607720486987  0.0328188657678653 20.7384822189594  0.110952913622746 20.8430893313756  C 0.189086961477638 20.9476983380933  0.319309745728719 21  0.44953064345862 21  C 0.44953064345862 21  18.5504731295838 21  18.5504731295838 21  C 18.6806959138348 21  18.8109149250435 20.9476983380933  18.8890508594196 20.8430893313756  Z M 13.1853030964366 8.4993771356557  C 13.1852993233942 8.26400923841777  13.3676127305627 8.08094584453865  13.6020148741273 8.08094584453865  C 13.8364132446496 8.08094584453865  14.0187266518181 8.26400923841777  14.0187266518181 8.4993771356557  C 14.0187266518181 8.73474503289364  13.8364132446496 8.91780747962205  13.6020148741273 8.91780747962205  C 13.3676127305627 8.91780747962205  13.1853030964366 8.73474408574294  13.1853030964366 8.4993771356557  Z M 5.94492534737806 5.43960110161745  C 5.94492534737806 5.43960110161745  5.94492534737806 4.55043543675058  5.94492534737806 4.55043543675058  C 5.94492534737806 2.56288893503367  7.55968372174487 0.941469280271906  9.53906891044863 0.941469280271906  C 11.51845032611 0.941469280271906  13.133210586998 2.56288893503367  13.133210586998 4.55043543675058  C 13.133210586998 4.55043543675058  13.133210586998 5.43960110161745  13.133210586998 5.43960110161745  L 5.94492534737806 5.43960110161745  Z M 5.05941116907917 8.4993771356557  C 5.05941116907917 8.26400923841777  5.24172268972644 8.08094584453865  5.47612294676992 8.08094584453865  C 5.71052509033457 8.08094584453865  5.89283472446068 8.26400923841777  5.89283472446068 8.4993771356557  C 5.89283472446068 8.73474503289364  5.71052509033457 8.91780747962205  5.47612294676992 8.91780747962205  C 5.24172457624763 8.91780747962205  5.05941116907917 8.73474408574294  5.05941116907917 8.4993771356557  Z M 18.0816688424544 20  L 0.996465205400457 20  L 2.45495925709988 6.35491901816374  L 5.00732243268297 6.35491901816374  C 5.00732243268297 6.35491901816374  5.00732243268297 7.21793195777584  5.00732243268297 7.21793195777584  C 4.48643318219982 7.40099582523031  4.12180825438407 7.89788245065954  4.12180825438407 8.47322441040094  C 4.12180825438407 9.2054779859174  4.72083155272211 9.80697267091357  5.45007952183241 9.80697267091357  C 6.17932560442153 9.80697267091357  6.77835078928075 9.2054779859174  6.77835078928075 8.47322441040094  C 6.77835078928075 7.89788150350883  6.41372774798619 7.40099535165496  5.89283661098186 7.21793195777584  C 5.89283661098186 7.21793195777584  5.89283661098186 6.35491901816374  5.89283661098186 6.35491901816374  L 13.0811218506018 6.35491901816374  C 13.0811218506018 6.35491901816374  13.0811218506018 7.21793195777584  13.0811218506018 7.21793195777584  C 12.5602326001187 7.40099582523031  12.1956095588241 7.89788245065954  12.1956095588241 8.47322441040094  C 12.1956095588241 9.2054779859174  12.7946328571621 9.80697267091357  13.5238789397513 9.80697267091357  C 14.2531250223404 9.80697267091357  14.8521502071996 9.2054779859174  14.8521502071996 8.47322441040094  C 14.8521502071996 7.89788150350883  14.4875252793839 7.40099535165496  13.9666341423795 7.21793195777584  C 13.9666341423795 7.21793195777584  13.9666341423795 6.35491901816374  13.9666341423795 6.35491901816374  L 16.6231766772762 6.35491901816374  L 18.0816688424544 20  Z " fill-rule="nonzero" fill="#333333" stroke="none" transform="matrix(1 0 0 1 1234 44 )" />
  </g>
</svg>