<?xml version="1.0" encoding="utf-8"?>
<svg version="1.1" xmlns:xlink="http://www.w3.org/1999/xlink" width="18px" height="9px" xmlns="http://www.w3.org/2000/svg">
  <g transform="matrix(1 0 0 1 -1204 -53 )">
    <path d="M 18 8.62498747754306  C 17.9999647194527 3.86850752349213  13.9624843646741 0  8.99996373943748 0  C 4.03744311420085 0  0 3.86928892480515  0 8.62498747754306  C 0 8.83199871770041  0.175316879749195 9.00000000000006  0.391316150617881 9.00000000000006  C 0.607315421486576 9.00000000000006  0.78263034120536 8.83199871770041  0.78263034120536 8.62498747754306  C 0.78263034120536 4.28249994991023  4.46870860456615 0.750025044913879  9.0000009800152 0.750025044913879  C 13.5312913954338 0.750025044913879  17.2173696587946 4.28249994991023  17.2173696587946 8.62498747754306  C 17.2173696587946 8.83199871770041  17.3926865385438 9.00000000000006  17.6086858094125 9.00000000000006  C 17.8246850802812 9.00000000000006  18 8.83199871770041  18 8.62498747754306  Z " fill-rule="nonzero" fill="#333333" stroke="none" transform="matrix(1 0 0 1 1204 53 )" />
  </g>
</svg>